<svg 
	height="512pt" 
	viewBox="-59 0 511 512" 
	width="512pt" 
	xmlns="http://www.w3.org/2000/svg"
	fill="#fff">
	<path 
		d="m392.5 60h-50v-60h-292v60h-50v90h32.785156l46 362h234.429688l46-362h32.785156zm-312-30h232v30h-232zm-50 60h332v30h-332zm75.214844 392-3.8125-30h189.195312l-3.8125 30zm189.195312-60h-196.820312l-26.9375-212h250.695312zm30.75-242h-258.320312l-3.8125-30h265.945312zm0 0"/>
		<path 
			d="m197.5 240c-41.355469 0-75 33.644531-75 75v1c0 41.355469 33.644531 75 75 75s75-33.644531 75-75v-1c0-41.355469-33.644531-75-75-75zm-45 76v-1c0-19.554688 12.539062-36.226562 30-42.421875v85.84375c-17.460938-6.195313-30-22.867187-30-42.421875zm90 0c0 19.554688-12.539062 36.226562-30 42.421875v-85.84375c17.460938 6.195313 30 22.867187 30 42.421875zm0 0"/>
</svg>